<mxfile host="app.diagrams.net" modified="2021-11-08T09:43:28.040Z" agent="5.0 (Windows NT 10.0; Win64; x64) AppleWebKit/537.36 (KHTML, like Gecko) Chrome/95.0.4638.69 Safari/537.36" etag="shHGQ0lSBAzqLIFuE5HI" version="14.5.10" type="github">
  <diagram id="p89gda-t_rR-_157VG8q" name="Page-1">
    <mxGraphModel dx="1038" dy="1406" grid="1" gridSize="10" guides="1" tooltips="1" connect="1" arrows="1" fold="1" page="1" pageScale="1" pageWidth="1169" pageHeight="827" math="0" shadow="0">
      <root>
        <mxCell id="0" />
        <mxCell id="1" parent="0" />
        <mxCell id="XUeTVqkeQpvu_R8YUDly-65" value="" style="group" parent="1" vertex="1" connectable="0">
          <mxGeometry x="30" y="120" width="120" height="80" as="geometry" />
        </mxCell>
        <mxCell id="XUeTVqkeQpvu_R8YUDly-1" value="A&lt;br&gt;3" style="rounded=0;whiteSpace=wrap;html=1;" parent="XUeTVqkeQpvu_R8YUDly-65" vertex="1">
          <mxGeometry width="120" height="80" as="geometry" />
        </mxCell>
        <mxCell id="XUeTVqkeQpvu_R8YUDly-57" value="0" style="rounded=0;whiteSpace=wrap;html=1;" parent="XUeTVqkeQpvu_R8YUDly-65" vertex="1">
          <mxGeometry y="56" width="22.5" height="24" as="geometry" />
        </mxCell>
        <mxCell id="XUeTVqkeQpvu_R8YUDly-58" value="0" style="rounded=0;whiteSpace=wrap;html=1;" parent="XUeTVqkeQpvu_R8YUDly-65" vertex="1">
          <mxGeometry width="22.5" height="24" as="geometry" />
        </mxCell>
        <mxCell id="XUeTVqkeQpvu_R8YUDly-59" value="2" style="rounded=0;whiteSpace=wrap;html=1;" parent="XUeTVqkeQpvu_R8YUDly-65" vertex="1">
          <mxGeometry x="97.5" width="22.5" height="24" as="geometry" />
        </mxCell>
        <mxCell id="XUeTVqkeQpvu_R8YUDly-60" value="2" style="rounded=0;whiteSpace=wrap;html=1;" parent="XUeTVqkeQpvu_R8YUDly-65" vertex="1">
          <mxGeometry x="97.5" y="56" width="22.5" height="24" as="geometry" />
        </mxCell>
        <mxCell id="XUeTVqkeQpvu_R8YUDly-72" value="" style="group" parent="1" vertex="1" connectable="0">
          <mxGeometry x="180" y="120" width="120" height="80" as="geometry" />
        </mxCell>
        <mxCell id="XUeTVqkeQpvu_R8YUDly-73" value="B&lt;br&gt;4" style="rounded=0;whiteSpace=wrap;html=1;" parent="XUeTVqkeQpvu_R8YUDly-72" vertex="1">
          <mxGeometry width="120" height="80" as="geometry" />
        </mxCell>
        <mxCell id="XUeTVqkeQpvu_R8YUDly-74" value="2" style="rounded=0;whiteSpace=wrap;html=1;" parent="XUeTVqkeQpvu_R8YUDly-72" vertex="1">
          <mxGeometry y="56" width="22.5" height="24" as="geometry" />
        </mxCell>
        <mxCell id="XUeTVqkeQpvu_R8YUDly-75" value="2" style="rounded=0;whiteSpace=wrap;html=1;" parent="XUeTVqkeQpvu_R8YUDly-72" vertex="1">
          <mxGeometry width="22.5" height="24" as="geometry" />
        </mxCell>
        <mxCell id="XUeTVqkeQpvu_R8YUDly-76" value="6" style="rounded=0;whiteSpace=wrap;html=1;" parent="XUeTVqkeQpvu_R8YUDly-72" vertex="1">
          <mxGeometry x="97.5" width="22.5" height="24" as="geometry" />
        </mxCell>
        <mxCell id="XUeTVqkeQpvu_R8YUDly-77" value="6" style="rounded=0;whiteSpace=wrap;html=1;" parent="XUeTVqkeQpvu_R8YUDly-72" vertex="1">
          <mxGeometry x="97.5" y="56" width="22.5" height="24" as="geometry" />
        </mxCell>
        <mxCell id="XUeTVqkeQpvu_R8YUDly-78" value="9" style="group" parent="1" vertex="1" connectable="0">
          <mxGeometry x="330" y="120" width="120" height="80" as="geometry" />
        </mxCell>
        <mxCell id="XUeTVqkeQpvu_R8YUDly-79" value="C&lt;br&gt;3" style="rounded=0;whiteSpace=wrap;html=1;" parent="XUeTVqkeQpvu_R8YUDly-78" vertex="1">
          <mxGeometry width="120" height="80" as="geometry" />
        </mxCell>
        <mxCell id="XUeTVqkeQpvu_R8YUDly-80" value="6" style="rounded=0;whiteSpace=wrap;html=1;" parent="XUeTVqkeQpvu_R8YUDly-78" vertex="1">
          <mxGeometry y="56" width="22.5" height="24" as="geometry" />
        </mxCell>
        <mxCell id="XUeTVqkeQpvu_R8YUDly-81" value="6" style="rounded=0;whiteSpace=wrap;html=1;" parent="XUeTVqkeQpvu_R8YUDly-78" vertex="1">
          <mxGeometry width="22.5" height="24" as="geometry" />
        </mxCell>
        <mxCell id="XUeTVqkeQpvu_R8YUDly-82" value="9" style="rounded=0;whiteSpace=wrap;html=1;" parent="XUeTVqkeQpvu_R8YUDly-78" vertex="1">
          <mxGeometry x="97.5" width="22.5" height="24" as="geometry" />
        </mxCell>
        <mxCell id="XUeTVqkeQpvu_R8YUDly-83" value="9" style="rounded=0;whiteSpace=wrap;html=1;" parent="XUeTVqkeQpvu_R8YUDly-78" vertex="1">
          <mxGeometry x="97.5" y="56" width="22.5" height="24" as="geometry" />
        </mxCell>
        <mxCell id="XUeTVqkeQpvu_R8YUDly-84" value="" style="group" parent="1" vertex="1" connectable="0">
          <mxGeometry x="480" y="120" width="120" height="80" as="geometry" />
        </mxCell>
        <mxCell id="XUeTVqkeQpvu_R8YUDly-85" value="D&lt;br&gt;7" style="rounded=0;whiteSpace=wrap;html=1;" parent="XUeTVqkeQpvu_R8YUDly-84" vertex="1">
          <mxGeometry width="120" height="80" as="geometry" />
        </mxCell>
        <mxCell id="XUeTVqkeQpvu_R8YUDly-86" value="9" style="rounded=0;whiteSpace=wrap;html=1;" parent="XUeTVqkeQpvu_R8YUDly-84" vertex="1">
          <mxGeometry y="56" width="22.5" height="24" as="geometry" />
        </mxCell>
        <mxCell id="XUeTVqkeQpvu_R8YUDly-87" value="9" style="rounded=0;whiteSpace=wrap;html=1;" parent="XUeTVqkeQpvu_R8YUDly-84" vertex="1">
          <mxGeometry width="22.5" height="24" as="geometry" />
        </mxCell>
        <mxCell id="XUeTVqkeQpvu_R8YUDly-88" value="16" style="rounded=0;whiteSpace=wrap;html=1;" parent="XUeTVqkeQpvu_R8YUDly-84" vertex="1">
          <mxGeometry x="97.5" width="22.5" height="24" as="geometry" />
        </mxCell>
        <mxCell id="XUeTVqkeQpvu_R8YUDly-89" value="16" style="rounded=0;whiteSpace=wrap;html=1;" parent="XUeTVqkeQpvu_R8YUDly-84" vertex="1">
          <mxGeometry x="97.5" y="56" width="22.5" height="24" as="geometry" />
        </mxCell>
        <mxCell id="XUeTVqkeQpvu_R8YUDly-96" value="" style="group" parent="1" vertex="1" connectable="0">
          <mxGeometry x="640" y="70" width="120" height="80" as="geometry" />
        </mxCell>
        <mxCell id="XUeTVqkeQpvu_R8YUDly-97" value="E&lt;br&gt;5" style="rounded=0;whiteSpace=wrap;html=1;" parent="XUeTVqkeQpvu_R8YUDly-96" vertex="1">
          <mxGeometry width="120" height="80" as="geometry" />
        </mxCell>
        <mxCell id="XUeTVqkeQpvu_R8YUDly-98" value="16" style="rounded=0;whiteSpace=wrap;html=1;" parent="XUeTVqkeQpvu_R8YUDly-96" vertex="1">
          <mxGeometry y="56" width="22.5" height="24" as="geometry" />
        </mxCell>
        <mxCell id="XUeTVqkeQpvu_R8YUDly-99" value="16" style="rounded=0;whiteSpace=wrap;html=1;" parent="XUeTVqkeQpvu_R8YUDly-96" vertex="1">
          <mxGeometry width="22.5" height="24" as="geometry" />
        </mxCell>
        <mxCell id="XUeTVqkeQpvu_R8YUDly-100" value="21" style="rounded=0;whiteSpace=wrap;html=1;" parent="XUeTVqkeQpvu_R8YUDly-96" vertex="1">
          <mxGeometry x="97.5" width="22.5" height="24" as="geometry" />
        </mxCell>
        <mxCell id="XUeTVqkeQpvu_R8YUDly-101" value="21" style="rounded=0;whiteSpace=wrap;html=1;" parent="XUeTVqkeQpvu_R8YUDly-96" vertex="1">
          <mxGeometry x="97.5" y="56" width="22.5" height="24" as="geometry" />
        </mxCell>
        <mxCell id="XUeTVqkeQpvu_R8YUDly-102" value="" style="group" parent="1" vertex="1" connectable="0">
          <mxGeometry x="640" y="170" width="120" height="80" as="geometry" />
        </mxCell>
        <mxCell id="XUeTVqkeQpvu_R8YUDly-103" value="F&lt;br&gt;4&lt;br&gt;1" style="rounded=0;whiteSpace=wrap;html=1;" parent="XUeTVqkeQpvu_R8YUDly-102" vertex="1">
          <mxGeometry width="120" height="80" as="geometry" />
        </mxCell>
        <mxCell id="XUeTVqkeQpvu_R8YUDly-104" value="16" style="rounded=0;whiteSpace=wrap;html=1;" parent="XUeTVqkeQpvu_R8YUDly-102" vertex="1">
          <mxGeometry y="56" width="22.5" height="24" as="geometry" />
        </mxCell>
        <mxCell id="XUeTVqkeQpvu_R8YUDly-105" value="16" style="rounded=0;whiteSpace=wrap;html=1;" parent="XUeTVqkeQpvu_R8YUDly-102" vertex="1">
          <mxGeometry width="22.5" height="24" as="geometry" />
        </mxCell>
        <mxCell id="XUeTVqkeQpvu_R8YUDly-106" value="20" style="rounded=0;whiteSpace=wrap;html=1;" parent="XUeTVqkeQpvu_R8YUDly-102" vertex="1">
          <mxGeometry x="97.5" width="22.5" height="24" as="geometry" />
        </mxCell>
        <mxCell id="XUeTVqkeQpvu_R8YUDly-107" value="21" style="rounded=0;whiteSpace=wrap;html=1;" parent="XUeTVqkeQpvu_R8YUDly-102" vertex="1">
          <mxGeometry x="97.5" y="56" width="22.5" height="24" as="geometry" />
        </mxCell>
        <mxCell id="XUeTVqkeQpvu_R8YUDly-108" value="" style="group" parent="1" vertex="1" connectable="0">
          <mxGeometry x="970" y="180" width="120" height="80" as="geometry" />
        </mxCell>
        <mxCell id="XUeTVqkeQpvu_R8YUDly-109" value="J&lt;br&gt;5" style="rounded=0;whiteSpace=wrap;html=1;" parent="XUeTVqkeQpvu_R8YUDly-108" vertex="1">
          <mxGeometry width="120" height="80" as="geometry" />
        </mxCell>
        <mxCell id="XUeTVqkeQpvu_R8YUDly-110" value="23" style="rounded=0;whiteSpace=wrap;html=1;" parent="XUeTVqkeQpvu_R8YUDly-108" vertex="1">
          <mxGeometry y="56" width="22.5" height="24" as="geometry" />
        </mxCell>
        <mxCell id="XUeTVqkeQpvu_R8YUDly-111" value="23" style="rounded=0;whiteSpace=wrap;html=1;" parent="XUeTVqkeQpvu_R8YUDly-108" vertex="1">
          <mxGeometry width="22.5" height="24" as="geometry" />
        </mxCell>
        <mxCell id="XUeTVqkeQpvu_R8YUDly-112" value="28" style="rounded=0;whiteSpace=wrap;html=1;" parent="XUeTVqkeQpvu_R8YUDly-108" vertex="1">
          <mxGeometry x="97.5" width="22.5" height="24" as="geometry" />
        </mxCell>
        <mxCell id="XUeTVqkeQpvu_R8YUDly-113" value="28" style="rounded=0;whiteSpace=wrap;html=1;" parent="XUeTVqkeQpvu_R8YUDly-108" vertex="1">
          <mxGeometry x="97.5" y="56" width="22.5" height="24" as="geometry" />
        </mxCell>
        <mxCell id="XUeTVqkeQpvu_R8YUDly-114" value="" style="group" parent="1" vertex="1" connectable="0">
          <mxGeometry x="970" y="-20" width="120" height="80" as="geometry" />
        </mxCell>
        <mxCell id="XUeTVqkeQpvu_R8YUDly-115" value="H&lt;br&gt;3&lt;br&gt;1" style="rounded=0;whiteSpace=wrap;html=1;" parent="XUeTVqkeQpvu_R8YUDly-114" vertex="1">
          <mxGeometry width="120" height="80" as="geometry" />
        </mxCell>
        <mxCell id="XUeTVqkeQpvu_R8YUDly-116" value="34" style="rounded=0;whiteSpace=wrap;html=1;" parent="XUeTVqkeQpvu_R8YUDly-114" vertex="1">
          <mxGeometry y="56" width="22.5" height="24" as="geometry" />
        </mxCell>
        <mxCell id="XUeTVqkeQpvu_R8YUDly-117" value="23" style="rounded=0;whiteSpace=wrap;html=1;" parent="XUeTVqkeQpvu_R8YUDly-114" vertex="1">
          <mxGeometry width="22.5" height="24" as="geometry" />
        </mxCell>
        <mxCell id="XUeTVqkeQpvu_R8YUDly-118" value="26" style="rounded=0;whiteSpace=wrap;html=1;" parent="XUeTVqkeQpvu_R8YUDly-114" vertex="1">
          <mxGeometry x="97.5" width="22.5" height="24" as="geometry" />
        </mxCell>
        <mxCell id="XUeTVqkeQpvu_R8YUDly-119" value="37" style="rounded=0;whiteSpace=wrap;html=1;" parent="XUeTVqkeQpvu_R8YUDly-114" vertex="1">
          <mxGeometry x="97.5" y="56" width="22.5" height="24" as="geometry" />
        </mxCell>
        <mxCell id="XUeTVqkeQpvu_R8YUDly-120" value="" style="group" parent="1" vertex="1" connectable="0">
          <mxGeometry x="970" y="80" width="120" height="80" as="geometry" />
        </mxCell>
        <mxCell id="XUeTVqkeQpvu_R8YUDly-121" value="I&lt;br&gt;5" style="rounded=0;whiteSpace=wrap;html=1;" parent="XUeTVqkeQpvu_R8YUDly-120" vertex="1">
          <mxGeometry width="120" height="80" as="geometry" />
        </mxCell>
        <mxCell id="XUeTVqkeQpvu_R8YUDly-122" value="23" style="rounded=0;whiteSpace=wrap;html=1;" parent="XUeTVqkeQpvu_R8YUDly-120" vertex="1">
          <mxGeometry y="56" width="22.5" height="24" as="geometry" />
        </mxCell>
        <mxCell id="XUeTVqkeQpvu_R8YUDly-123" value="23" style="rounded=0;whiteSpace=wrap;html=1;" parent="XUeTVqkeQpvu_R8YUDly-120" vertex="1">
          <mxGeometry width="22.5" height="24" as="geometry" />
        </mxCell>
        <mxCell id="XUeTVqkeQpvu_R8YUDly-124" value="28" style="rounded=0;whiteSpace=wrap;html=1;" parent="XUeTVqkeQpvu_R8YUDly-120" vertex="1">
          <mxGeometry x="97.5" width="22.5" height="24" as="geometry" />
        </mxCell>
        <mxCell id="XUeTVqkeQpvu_R8YUDly-125" value="28" style="rounded=0;whiteSpace=wrap;html=1;" parent="XUeTVqkeQpvu_R8YUDly-120" vertex="1">
          <mxGeometry x="97.5" y="56" width="22.5" height="24" as="geometry" />
        </mxCell>
        <mxCell id="XUeTVqkeQpvu_R8YUDly-126" value="" style="group" parent="1" vertex="1" connectable="0">
          <mxGeometry x="800" y="120" width="120" height="80" as="geometry" />
        </mxCell>
        <mxCell id="XUeTVqkeQpvu_R8YUDly-127" value="G&lt;br&gt;2" style="rounded=0;whiteSpace=wrap;html=1;" parent="XUeTVqkeQpvu_R8YUDly-126" vertex="1">
          <mxGeometry width="120" height="80" as="geometry" />
        </mxCell>
        <mxCell id="XUeTVqkeQpvu_R8YUDly-128" value="21" style="rounded=0;whiteSpace=wrap;html=1;" parent="XUeTVqkeQpvu_R8YUDly-126" vertex="1">
          <mxGeometry y="56" width="22.5" height="24" as="geometry" />
        </mxCell>
        <mxCell id="XUeTVqkeQpvu_R8YUDly-129" value="21" style="rounded=0;whiteSpace=wrap;html=1;" parent="XUeTVqkeQpvu_R8YUDly-126" vertex="1">
          <mxGeometry width="22.5" height="24" as="geometry" />
        </mxCell>
        <mxCell id="XUeTVqkeQpvu_R8YUDly-130" value="23" style="rounded=0;whiteSpace=wrap;html=1;" parent="XUeTVqkeQpvu_R8YUDly-126" vertex="1">
          <mxGeometry x="97.5" width="22.5" height="24" as="geometry" />
        </mxCell>
        <mxCell id="XUeTVqkeQpvu_R8YUDly-131" value="23" style="rounded=0;whiteSpace=wrap;html=1;" parent="XUeTVqkeQpvu_R8YUDly-126" vertex="1">
          <mxGeometry x="97.5" y="56" width="22.5" height="24" as="geometry" />
        </mxCell>
        <mxCell id="XUeTVqkeQpvu_R8YUDly-132" value="" style="group" parent="1" vertex="1" connectable="0">
          <mxGeometry x="970" y="280" width="120" height="80" as="geometry" />
        </mxCell>
        <mxCell id="XUeTVqkeQpvu_R8YUDly-133" value="K&lt;br&gt;3&lt;br&gt;4" style="rounded=0;whiteSpace=wrap;html=1;" parent="XUeTVqkeQpvu_R8YUDly-132" vertex="1">
          <mxGeometry width="120" height="80" as="geometry" />
        </mxCell>
        <mxCell id="XUeTVqkeQpvu_R8YUDly-134" value="27" style="rounded=0;whiteSpace=wrap;html=1;" parent="XUeTVqkeQpvu_R8YUDly-132" vertex="1">
          <mxGeometry y="56" width="22.5" height="24" as="geometry" />
        </mxCell>
        <mxCell id="XUeTVqkeQpvu_R8YUDly-135" value="27" style="rounded=0;whiteSpace=wrap;html=1;" parent="XUeTVqkeQpvu_R8YUDly-132" vertex="1">
          <mxGeometry width="22.5" height="24" as="geometry" />
        </mxCell>
        <mxCell id="XUeTVqkeQpvu_R8YUDly-136" value="26" style="rounded=0;whiteSpace=wrap;html=1;" parent="XUeTVqkeQpvu_R8YUDly-132" vertex="1">
          <mxGeometry x="97.5" width="22.5" height="24" as="geometry" />
        </mxCell>
        <mxCell id="XUeTVqkeQpvu_R8YUDly-137" value="30" style="rounded=0;whiteSpace=wrap;html=1;" parent="XUeTVqkeQpvu_R8YUDly-132" vertex="1">
          <mxGeometry x="97.5" y="56" width="22.5" height="24" as="geometry" />
        </mxCell>
        <mxCell id="XUeTVqkeQpvu_R8YUDly-138" value="28" style="group" parent="1" vertex="1" connectable="0">
          <mxGeometry x="1130" y="130" width="120" height="80" as="geometry" />
        </mxCell>
        <mxCell id="XUeTVqkeQpvu_R8YUDly-139" value="L&lt;br&gt;2" style="rounded=0;whiteSpace=wrap;html=1;" parent="XUeTVqkeQpvu_R8YUDly-138" vertex="1">
          <mxGeometry width="120" height="80" as="geometry" />
        </mxCell>
        <mxCell id="XUeTVqkeQpvu_R8YUDly-140" value="28" style="rounded=0;whiteSpace=wrap;html=1;" parent="XUeTVqkeQpvu_R8YUDly-138" vertex="1">
          <mxGeometry y="56" width="22.5" height="24" as="geometry" />
        </mxCell>
        <mxCell id="XUeTVqkeQpvu_R8YUDly-141" value="28" style="rounded=0;whiteSpace=wrap;html=1;" parent="XUeTVqkeQpvu_R8YUDly-138" vertex="1">
          <mxGeometry width="22.5" height="24" as="geometry" />
        </mxCell>
        <mxCell id="XUeTVqkeQpvu_R8YUDly-142" value="30" style="rounded=0;whiteSpace=wrap;html=1;" parent="XUeTVqkeQpvu_R8YUDly-138" vertex="1">
          <mxGeometry x="97.5" width="22.5" height="24" as="geometry" />
        </mxCell>
        <mxCell id="XUeTVqkeQpvu_R8YUDly-143" value="30" style="rounded=0;whiteSpace=wrap;html=1;" parent="XUeTVqkeQpvu_R8YUDly-138" vertex="1">
          <mxGeometry x="97.5" y="56" width="22.5" height="24" as="geometry" />
        </mxCell>
        <mxCell id="XUeTVqkeQpvu_R8YUDly-144" value="" style="group" parent="1" vertex="1" connectable="0">
          <mxGeometry x="1130" y="-20" width="120" height="80" as="geometry" />
        </mxCell>
        <mxCell id="XUeTVqkeQpvu_R8YUDly-145" value="O&lt;br&gt;3&lt;br&gt;11" style="rounded=0;whiteSpace=wrap;html=1;" parent="XUeTVqkeQpvu_R8YUDly-144" vertex="1">
          <mxGeometry width="120" height="80" as="geometry" />
        </mxCell>
        <mxCell id="XUeTVqkeQpvu_R8YUDly-146" value="37" style="rounded=0;whiteSpace=wrap;html=1;" parent="XUeTVqkeQpvu_R8YUDly-144" vertex="1">
          <mxGeometry y="56" width="22.5" height="24" as="geometry" />
        </mxCell>
        <mxCell id="XUeTVqkeQpvu_R8YUDly-147" value="26" style="rounded=0;whiteSpace=wrap;html=1;" parent="XUeTVqkeQpvu_R8YUDly-144" vertex="1">
          <mxGeometry width="22.5" height="24" as="geometry" />
        </mxCell>
        <mxCell id="XUeTVqkeQpvu_R8YUDly-148" value="29" style="rounded=0;whiteSpace=wrap;html=1;" parent="XUeTVqkeQpvu_R8YUDly-144" vertex="1">
          <mxGeometry x="97.5" width="22.5" height="24" as="geometry" />
        </mxCell>
        <mxCell id="XUeTVqkeQpvu_R8YUDly-149" value="40" style="rounded=0;whiteSpace=wrap;html=1;" parent="XUeTVqkeQpvu_R8YUDly-144" vertex="1">
          <mxGeometry x="97.5" y="56" width="22.5" height="24" as="geometry" />
        </mxCell>
        <mxCell id="XUeTVqkeQpvu_R8YUDly-150" value="36" style="group" parent="1" vertex="1" connectable="0">
          <mxGeometry x="1300" y="130" width="120" height="80" as="geometry" />
        </mxCell>
        <mxCell id="XUeTVqkeQpvu_R8YUDly-151" value="M&lt;br&gt;6" style="rounded=0;whiteSpace=wrap;html=1;" parent="XUeTVqkeQpvu_R8YUDly-150" vertex="1">
          <mxGeometry width="120" height="80" as="geometry" />
        </mxCell>
        <mxCell id="XUeTVqkeQpvu_R8YUDly-152" value="30" style="rounded=0;whiteSpace=wrap;html=1;" parent="XUeTVqkeQpvu_R8YUDly-150" vertex="1">
          <mxGeometry y="56" width="22.5" height="24" as="geometry" />
        </mxCell>
        <mxCell id="XUeTVqkeQpvu_R8YUDly-153" value="30" style="rounded=0;whiteSpace=wrap;html=1;" parent="XUeTVqkeQpvu_R8YUDly-150" vertex="1">
          <mxGeometry width="22.5" height="24" as="geometry" />
        </mxCell>
        <mxCell id="XUeTVqkeQpvu_R8YUDly-154" value="36" style="rounded=0;whiteSpace=wrap;html=1;" parent="XUeTVqkeQpvu_R8YUDly-150" vertex="1">
          <mxGeometry x="97.5" width="22.5" height="24" as="geometry" />
        </mxCell>
        <mxCell id="XUeTVqkeQpvu_R8YUDly-155" value="36" style="rounded=0;whiteSpace=wrap;html=1;" parent="XUeTVqkeQpvu_R8YUDly-150" vertex="1">
          <mxGeometry x="97.5" y="56" width="22.5" height="24" as="geometry" />
        </mxCell>
        <mxCell id="XUeTVqkeQpvu_R8YUDly-156" value="" style="group" parent="1" vertex="1" connectable="0">
          <mxGeometry x="1300" y="240" width="120" height="80" as="geometry" />
        </mxCell>
        <mxCell id="XUeTVqkeQpvu_R8YUDly-157" value="N&lt;br&gt;5&lt;br&gt;1" style="rounded=0;whiteSpace=wrap;html=1;" parent="XUeTVqkeQpvu_R8YUDly-156" vertex="1">
          <mxGeometry width="120" height="80" as="geometry" />
        </mxCell>
        <mxCell id="XUeTVqkeQpvu_R8YUDly-158" value="30" style="rounded=0;whiteSpace=wrap;html=1;" parent="XUeTVqkeQpvu_R8YUDly-156" vertex="1">
          <mxGeometry y="56" width="22.5" height="24" as="geometry" />
        </mxCell>
        <mxCell id="XUeTVqkeQpvu_R8YUDly-159" value="30" style="rounded=0;whiteSpace=wrap;html=1;" parent="XUeTVqkeQpvu_R8YUDly-156" vertex="1">
          <mxGeometry width="22.5" height="24" as="geometry" />
        </mxCell>
        <mxCell id="XUeTVqkeQpvu_R8YUDly-160" value="35" style="rounded=0;whiteSpace=wrap;html=1;" parent="XUeTVqkeQpvu_R8YUDly-156" vertex="1">
          <mxGeometry x="97.5" width="22.5" height="24" as="geometry" />
        </mxCell>
        <mxCell id="XUeTVqkeQpvu_R8YUDly-161" value="36" style="rounded=0;whiteSpace=wrap;html=1;" parent="XUeTVqkeQpvu_R8YUDly-156" vertex="1">
          <mxGeometry x="97.5" y="56" width="22.5" height="24" as="geometry" />
        </mxCell>
        <mxCell id="XUeTVqkeQpvu_R8YUDly-162" value="" style="group" parent="1" vertex="1" connectable="0">
          <mxGeometry x="1460" y="80" width="120" height="80" as="geometry" />
        </mxCell>
        <mxCell id="XUeTVqkeQpvu_R8YUDly-163" value="P&lt;br&gt;4&lt;span style=&quot;color: rgba(0 , 0 , 0 , 0) ; font-family: monospace ; font-size: 0px&quot;&gt;%3CmxGraphModel%3E%3Croot%3E%3CmxCell%20id%3D%220%22%2F%3E%3CmxCell%20id%3D%221%22%20parent%3D%220%22%2F%3E%3CmxCell%20id%3D%222%22%20value%3D%22%22%20style%3D%22group%22%20vertex%3D%221%22%20connectable%3D%220%22%20parent%3D%221%22%3E%3CmxGeometry%20x%3D%221169%22%20y%3D%22120%22%20width%3D%22120%22%20height%3D%2280%22%20as%3D%22geometry%22%2F%3E%3C%2FmxCell%3E%3CmxCell%20id%3D%223%22%20value%3D%22L%26lt%3Bbr%26gt%3B2%22%20style%3D%22rounded%3D0%3BwhiteSpace%3Dwrap%3Bhtml%3D1%3B%22%20vertex%3D%221%22%20parent%3D%222%22%3E%3CmxGeometry%20width%3D%22120%22%20height%3D%2280%22%20as%3D%22geometry%22%2F%3E%3C%2FmxCell%3E%3CmxCell%20id%3D%224%22%20value%3D%22%22%20style%3D%22rounded%3D0%3BwhiteSpace%3Dwrap%3Bhtml%3D1%3B%22%20vertex%3D%221%22%20parent%3D%222%22%3E%3CmxGeometry%20y%3D%2256%22%20width%3D%2222.5%22%20height%3D%2224%22%20as%3D%22geometry%22%2F%3E%3C%2FmxCell%3E%3CmxCell%20id%3D%225%22%20value%3D%220%22%20style%3D%22rounded%3D0%3BwhiteSpace%3Dwrap%3Bhtml%3D1%3B%22%20vertex%3D%221%22%20parent%3D%222%22%3E%3CmxGeometry%20width%3D%2222.5%22%20height%3D%2224%22%20as%3D%22geometry%22%2F%3E%3C%2FmxCell%3E%3CmxCell%20id%3D%226%22%20value%3D%22%22%20style%3D%22rounded%3D0%3BwhiteSpace%3Dwrap%3Bhtml%3D1%3B%22%20vertex%3D%221%22%20parent%3D%222%22%3E%3CmxGeometry%20x%3D%2297.5%22%20width%3D%2222.5%22%20height%3D%2224%22%20as%3D%22geometry%22%2F%3E%3C%2FmxCell%3E%3CmxCell%20id%3D%227%22%20value%3D%22%22%20style%3D%22rounded%3D0%3BwhiteSpace%3Dwrap%3Bhtml%3D1%3B%22%20vertex%3D%221%22%20parent%3D%222%22%3E%3CmxGeometry%20x%3D%2297.5%22%20y%3D%2256%22%20width%3D%2222.5%22%20height%3D%2224%22%20as%3D%22geometry%22%2F%3E%3C%2FmxCell%3E%3C%2Froot%3E%3C%2FmxGraphModel%3E&lt;/span&gt;" style="rounded=0;whiteSpace=wrap;html=1;" parent="XUeTVqkeQpvu_R8YUDly-162" vertex="1">
          <mxGeometry width="120" height="80" as="geometry" />
        </mxCell>
        <mxCell id="XUeTVqkeQpvu_R8YUDly-164" value="36" style="rounded=0;whiteSpace=wrap;html=1;" parent="XUeTVqkeQpvu_R8YUDly-162" vertex="1">
          <mxGeometry y="56" width="22.5" height="24" as="geometry" />
        </mxCell>
        <mxCell id="XUeTVqkeQpvu_R8YUDly-165" value="36" style="rounded=0;whiteSpace=wrap;html=1;" parent="XUeTVqkeQpvu_R8YUDly-162" vertex="1">
          <mxGeometry width="22.5" height="24" as="geometry" />
        </mxCell>
        <mxCell id="XUeTVqkeQpvu_R8YUDly-166" value="40" style="rounded=0;whiteSpace=wrap;html=1;" parent="XUeTVqkeQpvu_R8YUDly-162" vertex="1">
          <mxGeometry x="97.5" width="22.5" height="24" as="geometry" />
        </mxCell>
        <mxCell id="XUeTVqkeQpvu_R8YUDly-167" value="40" style="rounded=0;whiteSpace=wrap;html=1;" parent="XUeTVqkeQpvu_R8YUDly-162" vertex="1">
          <mxGeometry x="97.5" y="56" width="22.5" height="24" as="geometry" />
        </mxCell>
        <mxCell id="XUeTVqkeQpvu_R8YUDly-168" value="" style="group" parent="1" vertex="1" connectable="0">
          <mxGeometry x="1460" y="180" width="120" height="80" as="geometry" />
        </mxCell>
        <mxCell id="XUeTVqkeQpvu_R8YUDly-169" value="Q&lt;br&gt;5&lt;br&gt;1" style="rounded=0;whiteSpace=wrap;html=1;" parent="XUeTVqkeQpvu_R8YUDly-168" vertex="1">
          <mxGeometry width="120" height="80" as="geometry" />
        </mxCell>
        <mxCell id="XUeTVqkeQpvu_R8YUDly-170" value="37" style="rounded=0;whiteSpace=wrap;html=1;" parent="XUeTVqkeQpvu_R8YUDly-168" vertex="1">
          <mxGeometry y="56" width="22.5" height="24" as="geometry" />
        </mxCell>
        <mxCell id="XUeTVqkeQpvu_R8YUDly-171" value="36" style="rounded=0;whiteSpace=wrap;html=1;" parent="XUeTVqkeQpvu_R8YUDly-168" vertex="1">
          <mxGeometry width="22.5" height="24" as="geometry" />
        </mxCell>
        <mxCell id="XUeTVqkeQpvu_R8YUDly-172" value="42" style="rounded=0;whiteSpace=wrap;html=1;" parent="XUeTVqkeQpvu_R8YUDly-168" vertex="1">
          <mxGeometry x="97.5" width="22.5" height="24" as="geometry" />
        </mxCell>
        <mxCell id="XUeTVqkeQpvu_R8YUDly-173" value="42" style="rounded=0;whiteSpace=wrap;html=1;" parent="XUeTVqkeQpvu_R8YUDly-168" vertex="1">
          <mxGeometry x="97.5" y="56" width="22.5" height="24" as="geometry" />
        </mxCell>
        <mxCell id="XUeTVqkeQpvu_R8YUDly-174" value="36" style="group" parent="1" vertex="1" connectable="0">
          <mxGeometry x="1460" y="280" width="120" height="80" as="geometry" />
        </mxCell>
        <mxCell id="XUeTVqkeQpvu_R8YUDly-175" value="R&lt;br&gt;3&lt;br&gt;3" style="rounded=0;whiteSpace=wrap;html=1;" parent="XUeTVqkeQpvu_R8YUDly-174" vertex="1">
          <mxGeometry width="120" height="80" as="geometry" />
        </mxCell>
        <mxCell id="XUeTVqkeQpvu_R8YUDly-176" value="36" style="rounded=0;whiteSpace=wrap;html=1;" parent="XUeTVqkeQpvu_R8YUDly-174" vertex="1">
          <mxGeometry y="56" width="22.5" height="24" as="geometry" />
        </mxCell>
        <mxCell id="XUeTVqkeQpvu_R8YUDly-177" value="36" style="rounded=0;whiteSpace=wrap;html=1;" parent="XUeTVqkeQpvu_R8YUDly-174" vertex="1">
          <mxGeometry width="22.5" height="24" as="geometry" />
        </mxCell>
        <mxCell id="XUeTVqkeQpvu_R8YUDly-178" value="39" style="rounded=0;whiteSpace=wrap;html=1;" parent="XUeTVqkeQpvu_R8YUDly-174" vertex="1">
          <mxGeometry x="97.5" width="22.5" height="24" as="geometry" />
        </mxCell>
        <mxCell id="XUeTVqkeQpvu_R8YUDly-179" value="42" style="rounded=0;whiteSpace=wrap;html=1;" parent="XUeTVqkeQpvu_R8YUDly-174" vertex="1">
          <mxGeometry x="97.5" y="56" width="22.5" height="24" as="geometry" />
        </mxCell>
        <mxCell id="XUeTVqkeQpvu_R8YUDly-180" value="" style="group" parent="1" vertex="1" connectable="0">
          <mxGeometry x="1620" y="30" width="120" height="80" as="geometry" />
        </mxCell>
        <mxCell id="XUeTVqkeQpvu_R8YUDly-181" value="S&lt;br&gt;4" style="rounded=0;whiteSpace=wrap;html=1;" parent="XUeTVqkeQpvu_R8YUDly-180" vertex="1">
          <mxGeometry width="120" height="80" as="geometry" />
        </mxCell>
        <mxCell id="XUeTVqkeQpvu_R8YUDly-182" value="40" style="rounded=0;whiteSpace=wrap;html=1;" parent="XUeTVqkeQpvu_R8YUDly-180" vertex="1">
          <mxGeometry y="56" width="22.5" height="24" as="geometry" />
        </mxCell>
        <mxCell id="XUeTVqkeQpvu_R8YUDly-183" value="40" style="rounded=0;whiteSpace=wrap;html=1;" parent="XUeTVqkeQpvu_R8YUDly-180" vertex="1">
          <mxGeometry width="22.5" height="24" as="geometry" />
        </mxCell>
        <mxCell id="XUeTVqkeQpvu_R8YUDly-184" value="44" style="rounded=0;whiteSpace=wrap;html=1;" parent="XUeTVqkeQpvu_R8YUDly-180" vertex="1">
          <mxGeometry x="97.5" width="22.5" height="24" as="geometry" />
        </mxCell>
        <mxCell id="XUeTVqkeQpvu_R8YUDly-185" value="44" style="rounded=0;whiteSpace=wrap;html=1;" parent="XUeTVqkeQpvu_R8YUDly-180" vertex="1">
          <mxGeometry x="97.5" y="56" width="22.5" height="24" as="geometry" />
        </mxCell>
        <mxCell id="XUeTVqkeQpvu_R8YUDly-186" value="" style="group" parent="1" vertex="1" connectable="0">
          <mxGeometry x="1770" y="30" width="120" height="80" as="geometry" />
        </mxCell>
        <mxCell id="XUeTVqkeQpvu_R8YUDly-187" value="T&lt;br&gt;5" style="rounded=0;whiteSpace=wrap;html=1;" parent="XUeTVqkeQpvu_R8YUDly-186" vertex="1">
          <mxGeometry width="120" height="80" as="geometry" />
        </mxCell>
        <mxCell id="XUeTVqkeQpvu_R8YUDly-188" value="46" style="rounded=0;whiteSpace=wrap;html=1;" parent="XUeTVqkeQpvu_R8YUDly-186" vertex="1">
          <mxGeometry y="56" width="22.5" height="24" as="geometry" />
        </mxCell>
        <mxCell id="XUeTVqkeQpvu_R8YUDly-189" value="44" style="rounded=0;whiteSpace=wrap;html=1;" parent="XUeTVqkeQpvu_R8YUDly-186" vertex="1">
          <mxGeometry width="22.5" height="24" as="geometry" />
        </mxCell>
        <mxCell id="XUeTVqkeQpvu_R8YUDly-190" value="49" style="rounded=0;whiteSpace=wrap;html=1;" parent="XUeTVqkeQpvu_R8YUDly-186" vertex="1">
          <mxGeometry x="97.5" width="22.5" height="24" as="geometry" />
        </mxCell>
        <mxCell id="XUeTVqkeQpvu_R8YUDly-191" value="49" style="rounded=0;whiteSpace=wrap;html=1;" parent="XUeTVqkeQpvu_R8YUDly-186" vertex="1">
          <mxGeometry x="97.5" y="56" width="22.5" height="24" as="geometry" />
        </mxCell>
        <mxCell id="XUeTVqkeQpvu_R8YUDly-192" value="" style="group" parent="1" vertex="1" connectable="0">
          <mxGeometry x="1620" y="230" width="120" height="80" as="geometry" />
        </mxCell>
        <mxCell id="XUeTVqkeQpvu_R8YUDly-193" value="U&lt;br&gt;2&lt;br&gt;1" style="rounded=0;whiteSpace=wrap;html=1;" parent="XUeTVqkeQpvu_R8YUDly-192" vertex="1">
          <mxGeometry width="120" height="80" as="geometry" />
        </mxCell>
        <mxCell id="XUeTVqkeQpvu_R8YUDly-194" value="42" style="rounded=0;whiteSpace=wrap;html=1;" parent="XUeTVqkeQpvu_R8YUDly-192" vertex="1">
          <mxGeometry y="56" width="22.5" height="24" as="geometry" />
        </mxCell>
        <mxCell id="XUeTVqkeQpvu_R8YUDly-195" value="41" style="rounded=0;whiteSpace=wrap;html=1;" parent="XUeTVqkeQpvu_R8YUDly-192" vertex="1">
          <mxGeometry width="22.5" height="24" as="geometry" />
        </mxCell>
        <mxCell id="XUeTVqkeQpvu_R8YUDly-196" value="43" style="rounded=0;whiteSpace=wrap;html=1;" parent="XUeTVqkeQpvu_R8YUDly-192" vertex="1">
          <mxGeometry x="97.5" width="22.5" height="24" as="geometry" />
        </mxCell>
        <mxCell id="XUeTVqkeQpvu_R8YUDly-197" value="46" style="rounded=0;whiteSpace=wrap;html=1;" parent="XUeTVqkeQpvu_R8YUDly-192" vertex="1">
          <mxGeometry x="97.5" y="56" width="22.5" height="24" as="geometry" />
        </mxCell>
        <mxCell id="XUeTVqkeQpvu_R8YUDly-210" value="" style="group" parent="1" vertex="1" connectable="0">
          <mxGeometry x="1770" y="230" width="120" height="80" as="geometry" />
        </mxCell>
        <mxCell id="XUeTVqkeQpvu_R8YUDly-211" value="V&lt;br&gt;3&lt;br&gt;3" style="rounded=0;whiteSpace=wrap;html=1;" parent="XUeTVqkeQpvu_R8YUDly-210" vertex="1">
          <mxGeometry width="120" height="80" as="geometry" />
        </mxCell>
        <mxCell id="XUeTVqkeQpvu_R8YUDly-212" value="46" style="rounded=0;whiteSpace=wrap;html=1;" parent="XUeTVqkeQpvu_R8YUDly-210" vertex="1">
          <mxGeometry y="56" width="22.5" height="24" as="geometry" />
        </mxCell>
        <mxCell id="XUeTVqkeQpvu_R8YUDly-213" value="43" style="rounded=0;whiteSpace=wrap;html=1;" parent="XUeTVqkeQpvu_R8YUDly-210" vertex="1">
          <mxGeometry width="22.5" height="24" as="geometry" />
        </mxCell>
        <mxCell id="XUeTVqkeQpvu_R8YUDly-214" value="46" style="rounded=0;whiteSpace=wrap;html=1;" parent="XUeTVqkeQpvu_R8YUDly-210" vertex="1">
          <mxGeometry x="97.5" width="22.5" height="24" as="geometry" />
        </mxCell>
        <mxCell id="XUeTVqkeQpvu_R8YUDly-215" value="49" style="rounded=0;whiteSpace=wrap;html=1;" parent="XUeTVqkeQpvu_R8YUDly-210" vertex="1">
          <mxGeometry x="97.5" y="56" width="22.5" height="24" as="geometry" />
        </mxCell>
        <mxCell id="XUeTVqkeQpvu_R8YUDly-216" value="" style="group" parent="1" vertex="1" connectable="0">
          <mxGeometry x="1940" y="130" width="120" height="80" as="geometry" />
        </mxCell>
        <mxCell id="XUeTVqkeQpvu_R8YUDly-217" value="X&lt;br&gt;5" style="rounded=0;whiteSpace=wrap;html=1;" parent="XUeTVqkeQpvu_R8YUDly-216" vertex="1">
          <mxGeometry width="120" height="80" as="geometry" />
        </mxCell>
        <mxCell id="XUeTVqkeQpvu_R8YUDly-218" value="49" style="rounded=0;whiteSpace=wrap;html=1;" parent="XUeTVqkeQpvu_R8YUDly-216" vertex="1">
          <mxGeometry y="56" width="22.5" height="24" as="geometry" />
        </mxCell>
        <mxCell id="XUeTVqkeQpvu_R8YUDly-219" value="49" style="rounded=0;whiteSpace=wrap;html=1;" parent="XUeTVqkeQpvu_R8YUDly-216" vertex="1">
          <mxGeometry width="22.5" height="24" as="geometry" />
        </mxCell>
        <mxCell id="XUeTVqkeQpvu_R8YUDly-220" value="54" style="rounded=0;whiteSpace=wrap;html=1;" parent="XUeTVqkeQpvu_R8YUDly-216" vertex="1">
          <mxGeometry x="97.5" width="22.5" height="24" as="geometry" />
        </mxCell>
        <mxCell id="XUeTVqkeQpvu_R8YUDly-221" value="54" style="rounded=0;whiteSpace=wrap;html=1;" parent="XUeTVqkeQpvu_R8YUDly-216" vertex="1">
          <mxGeometry x="97.5" y="56" width="22.5" height="24" as="geometry" />
        </mxCell>
        <mxCell id="EsxMXQqpEsJGf9bAp2gq-1" style="edgeStyle=orthogonalEdgeStyle;rounded=0;orthogonalLoop=1;jettySize=auto;html=1;" edge="1" parent="1" source="XUeTVqkeQpvu_R8YUDly-1" target="XUeTVqkeQpvu_R8YUDly-73">
          <mxGeometry relative="1" as="geometry" />
        </mxCell>
        <mxCell id="EsxMXQqpEsJGf9bAp2gq-2" style="edgeStyle=orthogonalEdgeStyle;rounded=0;orthogonalLoop=1;jettySize=auto;html=1;" edge="1" parent="1" source="XUeTVqkeQpvu_R8YUDly-73" target="XUeTVqkeQpvu_R8YUDly-79">
          <mxGeometry relative="1" as="geometry" />
        </mxCell>
        <mxCell id="EsxMXQqpEsJGf9bAp2gq-3" style="edgeStyle=orthogonalEdgeStyle;rounded=0;orthogonalLoop=1;jettySize=auto;html=1;" edge="1" parent="1" source="XUeTVqkeQpvu_R8YUDly-79" target="XUeTVqkeQpvu_R8YUDly-85">
          <mxGeometry relative="1" as="geometry" />
        </mxCell>
        <mxCell id="EsxMXQqpEsJGf9bAp2gq-6" style="edgeStyle=orthogonalEdgeStyle;rounded=0;orthogonalLoop=1;jettySize=auto;html=1;" edge="1" parent="1" source="XUeTVqkeQpvu_R8YUDly-85" target="XUeTVqkeQpvu_R8YUDly-103">
          <mxGeometry relative="1" as="geometry" />
        </mxCell>
        <mxCell id="EsxMXQqpEsJGf9bAp2gq-7" style="edgeStyle=orthogonalEdgeStyle;rounded=0;orthogonalLoop=1;jettySize=auto;html=1;" edge="1" parent="1" source="XUeTVqkeQpvu_R8YUDly-85" target="XUeTVqkeQpvu_R8YUDly-97">
          <mxGeometry relative="1" as="geometry" />
        </mxCell>
        <mxCell id="EsxMXQqpEsJGf9bAp2gq-8" style="edgeStyle=orthogonalEdgeStyle;rounded=0;orthogonalLoop=1;jettySize=auto;html=1;" edge="1" parent="1" source="XUeTVqkeQpvu_R8YUDly-97" target="XUeTVqkeQpvu_R8YUDly-127">
          <mxGeometry relative="1" as="geometry" />
        </mxCell>
        <mxCell id="EsxMXQqpEsJGf9bAp2gq-9" style="edgeStyle=orthogonalEdgeStyle;rounded=0;orthogonalLoop=1;jettySize=auto;html=1;" edge="1" parent="1" source="XUeTVqkeQpvu_R8YUDly-103" target="XUeTVqkeQpvu_R8YUDly-127">
          <mxGeometry relative="1" as="geometry" />
        </mxCell>
        <mxCell id="EsxMXQqpEsJGf9bAp2gq-10" style="edgeStyle=orthogonalEdgeStyle;rounded=0;orthogonalLoop=1;jettySize=auto;html=1;entryX=0;entryY=0.5;entryDx=0;entryDy=0;" edge="1" parent="1" source="XUeTVqkeQpvu_R8YUDly-127" target="XUeTVqkeQpvu_R8YUDly-133">
          <mxGeometry relative="1" as="geometry" />
        </mxCell>
        <mxCell id="EsxMXQqpEsJGf9bAp2gq-11" style="edgeStyle=orthogonalEdgeStyle;rounded=0;orthogonalLoop=1;jettySize=auto;html=1;" edge="1" parent="1" source="XUeTVqkeQpvu_R8YUDly-127" target="XUeTVqkeQpvu_R8YUDly-109">
          <mxGeometry relative="1" as="geometry" />
        </mxCell>
        <mxCell id="EsxMXQqpEsJGf9bAp2gq-12" style="edgeStyle=orthogonalEdgeStyle;rounded=0;orthogonalLoop=1;jettySize=auto;html=1;entryX=0;entryY=0.5;entryDx=0;entryDy=0;" edge="1" parent="1" source="XUeTVqkeQpvu_R8YUDly-127" target="XUeTVqkeQpvu_R8YUDly-121">
          <mxGeometry relative="1" as="geometry" />
        </mxCell>
        <mxCell id="EsxMXQqpEsJGf9bAp2gq-13" style="edgeStyle=orthogonalEdgeStyle;rounded=0;orthogonalLoop=1;jettySize=auto;html=1;entryX=0;entryY=0.5;entryDx=0;entryDy=0;" edge="1" parent="1" source="XUeTVqkeQpvu_R8YUDly-127" target="XUeTVqkeQpvu_R8YUDly-115">
          <mxGeometry relative="1" as="geometry" />
        </mxCell>
        <mxCell id="EsxMXQqpEsJGf9bAp2gq-14" style="edgeStyle=orthogonalEdgeStyle;rounded=0;orthogonalLoop=1;jettySize=auto;html=1;" edge="1" parent="1" source="XUeTVqkeQpvu_R8YUDly-109" target="XUeTVqkeQpvu_R8YUDly-139">
          <mxGeometry relative="1" as="geometry" />
        </mxCell>
        <mxCell id="EsxMXQqpEsJGf9bAp2gq-15" style="edgeStyle=orthogonalEdgeStyle;rounded=0;orthogonalLoop=1;jettySize=auto;html=1;" edge="1" parent="1" source="XUeTVqkeQpvu_R8YUDly-121" target="XUeTVqkeQpvu_R8YUDly-139">
          <mxGeometry relative="1" as="geometry" />
        </mxCell>
        <mxCell id="EsxMXQqpEsJGf9bAp2gq-16" style="edgeStyle=orthogonalEdgeStyle;rounded=0;orthogonalLoop=1;jettySize=auto;html=1;" edge="1" parent="1" source="XUeTVqkeQpvu_R8YUDly-139" target="XUeTVqkeQpvu_R8YUDly-151">
          <mxGeometry relative="1" as="geometry" />
        </mxCell>
        <mxCell id="EsxMXQqpEsJGf9bAp2gq-17" style="edgeStyle=orthogonalEdgeStyle;rounded=0;orthogonalLoop=1;jettySize=auto;html=1;entryX=0;entryY=0.5;entryDx=0;entryDy=0;" edge="1" parent="1" source="XUeTVqkeQpvu_R8YUDly-139" target="XUeTVqkeQpvu_R8YUDly-157">
          <mxGeometry relative="1" as="geometry">
            <Array as="points">
              <mxPoint x="1270" y="170" />
              <mxPoint x="1270" y="280" />
            </Array>
          </mxGeometry>
        </mxCell>
        <mxCell id="EsxMXQqpEsJGf9bAp2gq-18" style="edgeStyle=orthogonalEdgeStyle;rounded=0;orthogonalLoop=1;jettySize=auto;html=1;" edge="1" parent="1" source="XUeTVqkeQpvu_R8YUDly-133" target="XUeTVqkeQpvu_R8YUDly-157">
          <mxGeometry relative="1" as="geometry" />
        </mxCell>
        <mxCell id="EsxMXQqpEsJGf9bAp2gq-19" style="edgeStyle=orthogonalEdgeStyle;rounded=0;orthogonalLoop=1;jettySize=auto;html=1;" edge="1" parent="1" source="XUeTVqkeQpvu_R8YUDly-151" target="XUeTVqkeQpvu_R8YUDly-163">
          <mxGeometry relative="1" as="geometry" />
        </mxCell>
        <mxCell id="EsxMXQqpEsJGf9bAp2gq-20" style="edgeStyle=orthogonalEdgeStyle;rounded=0;orthogonalLoop=1;jettySize=auto;html=1;" edge="1" parent="1" source="XUeTVqkeQpvu_R8YUDly-151" target="XUeTVqkeQpvu_R8YUDly-169">
          <mxGeometry relative="1" as="geometry" />
        </mxCell>
        <mxCell id="EsxMXQqpEsJGf9bAp2gq-21" style="edgeStyle=orthogonalEdgeStyle;rounded=0;orthogonalLoop=1;jettySize=auto;html=1;entryX=0;entryY=0.5;entryDx=0;entryDy=0;" edge="1" parent="1" source="XUeTVqkeQpvu_R8YUDly-151" target="XUeTVqkeQpvu_R8YUDly-175">
          <mxGeometry relative="1" as="geometry" />
        </mxCell>
        <mxCell id="EsxMXQqpEsJGf9bAp2gq-22" style="edgeStyle=orthogonalEdgeStyle;rounded=0;orthogonalLoop=1;jettySize=auto;html=1;" edge="1" parent="1" source="XUeTVqkeQpvu_R8YUDly-157" target="XUeTVqkeQpvu_R8YUDly-175">
          <mxGeometry relative="1" as="geometry" />
        </mxCell>
        <mxCell id="EsxMXQqpEsJGf9bAp2gq-23" style="edgeStyle=orthogonalEdgeStyle;rounded=0;orthogonalLoop=1;jettySize=auto;html=1;" edge="1" parent="1" source="XUeTVqkeQpvu_R8YUDly-175" target="XUeTVqkeQpvu_R8YUDly-193">
          <mxGeometry relative="1" as="geometry" />
        </mxCell>
        <mxCell id="EsxMXQqpEsJGf9bAp2gq-24" style="edgeStyle=orthogonalEdgeStyle;rounded=0;orthogonalLoop=1;jettySize=auto;html=1;" edge="1" parent="1" source="XUeTVqkeQpvu_R8YUDly-169" target="XUeTVqkeQpvu_R8YUDly-193">
          <mxGeometry relative="1" as="geometry" />
        </mxCell>
        <mxCell id="EsxMXQqpEsJGf9bAp2gq-25" style="edgeStyle=orthogonalEdgeStyle;rounded=0;orthogonalLoop=1;jettySize=auto;html=1;" edge="1" parent="1" source="XUeTVqkeQpvu_R8YUDly-145" target="XUeTVqkeQpvu_R8YUDly-181">
          <mxGeometry relative="1" as="geometry" />
        </mxCell>
        <mxCell id="EsxMXQqpEsJGf9bAp2gq-26" style="edgeStyle=orthogonalEdgeStyle;rounded=0;orthogonalLoop=1;jettySize=auto;html=1;" edge="1" parent="1" source="XUeTVqkeQpvu_R8YUDly-115" target="XUeTVqkeQpvu_R8YUDly-145">
          <mxGeometry relative="1" as="geometry" />
        </mxCell>
        <mxCell id="EsxMXQqpEsJGf9bAp2gq-27" style="edgeStyle=orthogonalEdgeStyle;rounded=0;orthogonalLoop=1;jettySize=auto;html=1;" edge="1" parent="1" source="XUeTVqkeQpvu_R8YUDly-163" target="XUeTVqkeQpvu_R8YUDly-181">
          <mxGeometry relative="1" as="geometry" />
        </mxCell>
        <mxCell id="EsxMXQqpEsJGf9bAp2gq-28" style="edgeStyle=orthogonalEdgeStyle;rounded=0;orthogonalLoop=1;jettySize=auto;html=1;" edge="1" parent="1" source="XUeTVqkeQpvu_R8YUDly-181" target="XUeTVqkeQpvu_R8YUDly-187">
          <mxGeometry relative="1" as="geometry" />
        </mxCell>
        <mxCell id="EsxMXQqpEsJGf9bAp2gq-29" style="edgeStyle=orthogonalEdgeStyle;rounded=0;orthogonalLoop=1;jettySize=auto;html=1;" edge="1" parent="1" source="XUeTVqkeQpvu_R8YUDly-193" target="XUeTVqkeQpvu_R8YUDly-211">
          <mxGeometry relative="1" as="geometry" />
        </mxCell>
        <mxCell id="EsxMXQqpEsJGf9bAp2gq-31" style="edgeStyle=orthogonalEdgeStyle;rounded=0;orthogonalLoop=1;jettySize=auto;html=1;" edge="1" parent="1" source="XUeTVqkeQpvu_R8YUDly-187" target="XUeTVqkeQpvu_R8YUDly-217">
          <mxGeometry relative="1" as="geometry">
            <Array as="points">
              <mxPoint x="1920" y="70" />
              <mxPoint x="1920" y="170" />
            </Array>
          </mxGeometry>
        </mxCell>
        <mxCell id="EsxMXQqpEsJGf9bAp2gq-32" style="edgeStyle=orthogonalEdgeStyle;rounded=0;orthogonalLoop=1;jettySize=auto;html=1;" edge="1" parent="1" source="XUeTVqkeQpvu_R8YUDly-211" target="XUeTVqkeQpvu_R8YUDly-217">
          <mxGeometry relative="1" as="geometry">
            <Array as="points">
              <mxPoint x="1920" y="270" />
              <mxPoint x="1920" y="170" />
            </Array>
          </mxGeometry>
        </mxCell>
      </root>
    </mxGraphModel>
  </diagram>
</mxfile>
